999
FreeCAD v1.1 20260414 (Git shallow)
  0
SECTION
  2
HEADER
  9
$ACADVER
  1
AC1014
  9
$ACADMAINTVER
 70
     9
  9
$DWGCODEPAGE
  3
ANSI_1252
  9
$TEXTSTYLE
  7
STANDARD
  9
$DIMSTYLE
  2
STANDARD
  9
$DIMTXSTY
  7
STANDARD
  9
$CMLSTYLE
  2
STANDARD
  9
$LUNITS
 70
2
  9
$INSUNITS
 70
4
  9
$PEXTMAX
 10
50
 20
50
 30
50
  9
$PEXTMIN
 10
0
 20
0
 30
0
  9
$HANDSEED
  5
FFFF
  0
ENDSEC
  0
SECTION
  2
CLASSES
  0
CLASS
  1
ACDBDICTIONARYWDFLT
  2
AcDbDictionaryWithDefault
  3
ObjectDBX Classes
 90
        0
280
     0
281
     0
  0
CLASS
  1
XRECORD
  2
AcDbXrecord
  3
ObjectDBX Classes
 90
        0
280
     0
281
     0
  0
CLASS
  1
LWPOLYLINE
  2
AcDbPolyline
  3
ObjectDBX Classes
 90
        0
280
     0
281
     1
  0
ENDSEC
  0
SECTION
  2
TABLES
  0
TABLE
  2
VPORT
  5
20
330
0
100
AcDbSymbolTable
 70
     1
  0
VPORT
  5
21
330
20
100
AcDbSymbolTableRecord
100
AcDbViewportTableRecord
  2
*ACTIVE
 70
     0
  0
ENDTAB
  0
TABLE
  2
LTYPE
  5
22
330
0
100
AcDbSymbolTable
 70
     1
  0
LTYPE
  5
23
330
21
100
AcDbSymbolTableRecord
100
AcDbLinetypeTableRecord
  2
BYBLOCK
 70
     0
  3

 72
    65
 73
     0
 40
0.0
  0
LTYPE
  5
24
330
21
100
AcDbSymbolTableRecord
100
AcDbLinetypeTableRecord
  2
BYLAYER
 70
     0
  3

 72
    65
 73
     0
 40
0.0
  0
LTYPE
  5
25
330
21
100
AcDbSymbolTableRecord
100
AcDbLinetypeTableRecord
  2
CONTINUOUS
 70
     0
  3
Solid line
 72
    65
 73
     0
 40
0.0
  0
ENDTAB
  0
TABLE
  2
LAYER
  5
A7C
330
0
100
AcDbSymbolTable
 70
3
  0
LAYER
  5
A7D
330
A7C
100
AcDbSymbolTableRecord
100
AcDbLayerTableRecord
  2
0
 70
   0
 62
   7
  6
CONTINUOUS
  0
LAYER
  5
A7E
330
A7C
100
AcDbSymbolTableRecord
100
AcDbLayerTableRecord
  2
none
 70
    0
 62
    7
  6
CONTINUOUS
  0
LAYER
  5
A7F
330
A7C
100
AcDbSymbolTableRecord
100
AcDbLayerTableRecord
  2
Sketch
 70
    0
 62
    7
  6
CONTINUOUS
  0
ENDTAB
  0
TABLE
  2
STYLE
  5
70
330
0
100
AcDbSymbolTable
 70
     2
  0
STYLE
  5
71
330
70
100
AcDbSymbolTableRecord
100
AcDbTextStyleTableRecord
  2
STANDARD
 70
     0
 40
0.0
 41
1.0
 50
0.0
 71
     0
 42
2.5
  3
arial.ttf
  4

  0
STYLE
  5
72
330
70
100
AcDbSymbolTableRecord
100
AcDbTextStyleTableRecord
  2
ANNOTATIVE
 70
     0
 40
0.0
 41
1.0
 50
0.0
 71
     0
 42
2.5
  3
arial.ttf
  4

  0
ENDTAB
  0
TABLE
  2
VIEW
  5
73
330
0
100
AcDbSymbolTable
 70
     0
  0
ENDTAB
  0
TABLE
  2
UCS
  5
74
330
0
100
AcDbSymbolTable
 70
     0
  0
ENDTAB
  0
TABLE
  2
APPID
  5
75
330
0
100
AcDbSymbolTable
 70
     2
  0
APPID
  5
76
330
75
100
AcDbSymbolTableRecord
100
AcDbRegAppTableRecord
  2
ACAD
 70
     0
  0
APPID
  5
77
330
75
100
AcDbSymbolTableRecord
100
AcDbRegAppTableRecord
  2
ACADANNOTATIVE
 70
     0
  0
ENDTAB
  0
TABLE
  2
DIMSTYLE
  5
78
330
0
100
AcDbSymbolTable
 70
     2
  0
DIMSTYLE
105
79
330
78
100
AcDbSymbolTableRecord
100
AcDbDimStyleTableRecord
  2
STANDARD
 70
     0
  3

  4

  5

  6

  7

 40
0.0
 41
2.5
 42
0.625
 43
3.75
 44
1.25
 45
0.0
 46
0.0
 47
0.0
 48
0.0
140
2.5
141
2.5
142
0.0
143
0.03937007874016
144
1.0
145
0.0
146
1.0
147
0.625
 71
     0
 72
     0
 73
     0
 74
     0
 75
     0
 76
     0
 77
     1
 78
     8
170
     0
171
     3
172
     1
173
     0
174
     0
175
     0
176
     0
177
     0
178
     0
270
     2
271
     2
272
     2
273
     2
274
     3
340
71
275
     0
280
     0
281
     0
282
     0
283
     0
284
     8
285
     0
286
     0
287
     3
288
     0
  0
ENDTAB
  0
TABLE
  2
BLOCK_RECORD
  5
A01
330
0
100
AcDbSymbolTable
  70
5
  0
BLOCK_RECORD
  5
A02
330
A01
100
AcDbSymbolTableRecord
100
AcDbBlockTableRecord
  2
*MODEL_SPACE
  0
BLOCK_RECORD
  5
A03
330
A01
100
AcDbSymbolTableRecord
100
AcDbBlockTableRecord
  2
*PAPER_SPACE
  0
ENDTAB
  0
ENDSEC
  0
SECTION
  2
BLOCKS
  0
BLOCK
  5
A04
330
A02
100
AcDbEntity
  8
0
100
AcDbBlockBegin
  2
*MODEL_SPACE
 70
   0
 10
0
 20
0
 30
0
  3
*MODEL_SPACE
  1
 
  0
ENDBLK
  5
A05
330
A02
100
AcDbEntity
  8
0
100
AcDbBlockEnd
  0
BLOCK
  5
A06
330
A03
100
AcDbEntity
 67
1
  8
0
100
AcDbBlockBegin
  2
*PAPER_SPACE
 70
   0
 10
0
 20
0
 30
0
  3
*PAPER_SPACE
  1
 
  0
ENDBLK
  5
A07
330
A03
100
AcDbEntity
 67
    1
  8
0
100
AcDbBlockEnd
  0
ENDSEC
  0
SECTION
  2
ENTITIES
  0
LINE
  5
A08
330
A02
100
AcDbEntity
  8
Sketch
100
AcDbLine
 10
-61.495916621
 20
35.192976224
 30
0.000000000
 11
-60.032518135
 21
21.269669689
 31
0.000000000
  0
LINE
  5
A09
330
A02
100
AcDbEntity
  8
Sketch
100
AcDbLine
 10
-60.032518135
 20
21.269669689
 30
0.000000000
 11
-46.109211600
 21
22.733068174
 31
0.000000000
  0
LINE
  5
A0A
330
A02
100
AcDbEntity
  8
Sketch
100
AcDbLine
 10
-46.109211600
 20
22.733068174
 30
0.000000000
 11
-47.572610086
 21
36.656374709
 31
0.000000000
  0
LINE
  5
A0B
330
A02
100
AcDbEntity
  8
Sketch
100
AcDbLine
 10
-47.572610086
 20
36.656374709
 30
0.000000000
 11
-61.495916621
 21
35.192976224
 31
0.000000000
  0
LINE
  5
A0C
330
A02
100
AcDbEntity
  8
Sketch
100
AcDbLine
 10
-34.050000000
 20
49.000000000
 30
0.000000000
 11
-34.050000000
 21
35.000000000
 31
0.000000000
  0
LINE
  5
A0D
330
A02
100
AcDbEntity
  8
Sketch
100
AcDbLine
 10
-34.050000000
 20
35.000000000
 30
0.000000000
 11
-20.050000000
 21
35.000000000
 31
0.000000000
  0
LINE
  5
A0E
330
A02
100
AcDbEntity
  8
Sketch
100
AcDbLine
 10
-20.050000000
 20
35.000000000
 30
0.000000000
 11
-20.050000000
 21
49.000000000
 31
0.000000000
  0
LINE
  5
A0F
330
A02
100
AcDbEntity
  8
Sketch
100
AcDbLine
 10
-20.050000000
 20
49.000000000
 30
0.000000000
 11
-34.050000000
 21
49.000000000
 31
0.000000000
  0
LINE
  5
A10
330
A02
100
AcDbEntity
  8
Sketch
100
AcDbLine
 10
-15.000000000
 20
55.000000000
 30
0.000000000
 11
-15.000000000
 21
41.000000000
 31
0.000000000
  0
LINE
  5
A11
330
A02
100
AcDbEntity
  8
Sketch
100
AcDbLine
 10
-15.000000000
 20
41.000000000
 30
0.000000000
 11
-1.000000000
 21
41.000000000
 31
0.000000000
  0
LINE
  5
A12
330
A02
100
AcDbEntity
  8
Sketch
100
AcDbLine
 10
-1.000000000
 20
41.000000000
 30
0.000000000
 11
-1.000000000
 21
55.000000000
 31
0.000000000
  0
LINE
  5
A13
330
A02
100
AcDbEntity
  8
Sketch
100
AcDbLine
 10
-1.000000000
 20
55.000000000
 30
0.000000000
 11
-15.000000000
 21
55.000000000
 31
0.000000000
  0
LINE
  5
A14
330
A02
100
AcDbEntity
  8
Sketch
100
AcDbLine
 10
4.050000000
 20
51.000000000
 30
0.000000000
 11
4.050000000
 21
37.000000000
 31
0.000000000
  0
LINE
  5
A15
330
A02
100
AcDbEntity
  8
Sketch
100
AcDbLine
 10
4.050000000
 20
37.000000000
 30
0.000000000
 11
18.050000000
 21
37.000000000
 31
0.000000000
  0
LINE
  5
A16
330
A02
100
AcDbEntity
  8
Sketch
100
AcDbLine
 10
18.050000000
 20
37.000000000
 30
0.000000000
 11
18.050000000
 21
51.000000000
 31
0.000000000
  0
LINE
  5
A17
330
A02
100
AcDbEntity
  8
Sketch
100
AcDbLine
 10
18.050000000
 20
51.000000000
 30
0.000000000
 11
4.050000000
 21
51.000000000
 31
0.000000000
  0
LINE
  5
A18
330
A02
100
AcDbEntity
  8
Sketch
100
AcDbLine
 10
-59.504649396
 20
16.247334117
 30
0.000000000
 11
-58.041250910
 21
2.324027582
 31
0.000000000
  0
LINE
  5
A19
330
A02
100
AcDbEntity
  8
Sketch
100
AcDbLine
 10
-58.041250910
 20
2.324027582
 30
0.000000000
 11
-44.117944375
 21
3.787426068
 31
0.000000000
  0
LINE
  5
A1A
330
A02
100
AcDbEntity
  8
Sketch
100
AcDbLine
 10
-44.117944375
 20
3.787426068
 30
0.000000000
 11
-45.581342860
 21
17.710732603
 31
0.000000000
  0
LINE
  5
A1B
330
A02
100
AcDbEntity
  8
Sketch
100
AcDbLine
 10
-45.581342860
 20
17.710732603
 30
0.000000000
 11
-59.504649396
 21
16.247334117
 31
0.000000000
  0
LINE
  5
A1C
330
A02
100
AcDbEntity
  8
Sketch
100
AcDbLine
 10
-34.050000000
 20
29.950000000
 30
0.000000000
 11
-34.050000000
 21
15.950000000
 31
0.000000000
  0
LINE
  5
A1D
330
A02
100
AcDbEntity
  8
Sketch
100
AcDbLine
 10
-34.050000000
 20
15.950000000
 30
0.000000000
 11
-20.050000000
 21
15.950000000
 31
0.000000000
  0
LINE
  5
A1E
330
A02
100
AcDbEntity
  8
Sketch
100
AcDbLine
 10
-20.050000000
 20
15.950000000
 30
0.000000000
 11
-20.050000000
 21
29.950000000
 31
0.000000000
  0
LINE
  5
A1F
330
A02
100
AcDbEntity
  8
Sketch
100
AcDbLine
 10
-20.050000000
 20
29.950000000
 30
0.000000000
 11
-34.050000000
 21
29.950000000
 31
0.000000000
  0
LINE
  5
A20
330
A02
100
AcDbEntity
  8
Sketch
100
AcDbLine
 10
-15.000000000
 20
35.950000000
 30
0.000000000
 11
-15.000000000
 21
21.950000000
 31
0.000000000
  0
LINE
  5
A21
330
A02
100
AcDbEntity
  8
Sketch
100
AcDbLine
 10
-15.000000000
 20
21.950000000
 30
0.000000000
 11
-1.000000000
 21
21.950000000
 31
0.000000000
  0
LINE
  5
A22
330
A02
100
AcDbEntity
  8
Sketch
100
AcDbLine
 10
-1.000000000
 20
21.950000000
 30
0.000000000
 11
-1.000000000
 21
35.950000000
 31
0.000000000
  0
LINE
  5
A23
330
A02
100
AcDbEntity
  8
Sketch
100
AcDbLine
 10
-1.000000000
 20
35.950000000
 30
0.000000000
 11
-15.000000000
 21
35.950000000
 31
0.000000000
  0
LINE
  5
A24
330
A02
100
AcDbEntity
  8
Sketch
100
AcDbLine
 10
4.050000000
 20
31.950000000
 30
0.000000000
 11
4.050000000
 21
17.950000000
 31
0.000000000
  0
LINE
  5
A25
330
A02
100
AcDbEntity
  8
Sketch
100
AcDbLine
 10
4.050000000
 20
17.950000000
 30
0.000000000
 11
18.050000000
 21
17.950000000
 31
0.000000000
  0
LINE
  5
A26
330
A02
100
AcDbEntity
  8
Sketch
100
AcDbLine
 10
18.050000000
 20
17.950000000
 30
0.000000000
 11
18.050000000
 21
31.950000000
 31
0.000000000
  0
LINE
  5
A27
330
A02
100
AcDbEntity
  8
Sketch
100
AcDbLine
 10
18.050000000
 20
31.950000000
 30
0.000000000
 11
4.050000000
 21
31.950000000
 31
0.000000000
  0
LINE
  5
A28
330
A02
100
AcDbEntity
  8
Sketch
100
AcDbLine
 10
-57.521459294
 20
-2.621459294
 30
0.000000000
 11
-56.050000000
 21
-16.621459294
 31
0.000000000
  0
LINE
  5
A29
330
A02
100
AcDbEntity
  8
Sketch
100
AcDbLine
 10
-56.050000000
 20
-16.621459294
 30
0.000000000
 11
-42.050000000
 21
-15.150000000
 31
0.000000000
  0
LINE
  5
A2A
330
A02
100
AcDbEntity
  8
Sketch
100
AcDbLine
 10
-42.050000000
 20
-15.150000000
 30
0.000000000
 11
-43.521459294
 21
-1.150000000
 31
0.000000000
  0
LINE
  5
A2B
330
A02
100
AcDbEntity
  8
Sketch
100
AcDbLine
 10
-43.521459294
 20
-1.150000000
 30
0.000000000
 11
-57.521459294
 21
-2.621459294
 31
0.000000000
  0
LINE
  5
A2C
330
A02
100
AcDbEntity
  8
Sketch
100
AcDbLine
 10
-34.050000000
 20
10.900000000
 30
0.000000000
 11
-34.050000000
 21
-3.100000000
 31
0.000000000
  0
LINE
  5
A2D
330
A02
100
AcDbEntity
  8
Sketch
100
AcDbLine
 10
-34.050000000
 20
-3.100000000
 30
0.000000000
 11
-20.050000000
 21
-3.100000000
 31
0.000000000
  0
LINE
  5
A2E
330
A02
100
AcDbEntity
  8
Sketch
100
AcDbLine
 10
-20.050000000
 20
-3.100000000
 30
0.000000000
 11
-20.050000000
 21
10.900000000
 31
0.000000000
  0
LINE
  5
A2F
330
A02
100
AcDbEntity
  8
Sketch
100
AcDbLine
 10
-20.050000000
 20
10.900000000
 30
0.000000000
 11
-34.050000000
 21
10.900000000
 31
0.000000000
  0
LINE
  5
A30
330
A02
100
AcDbEntity
  8
Sketch
100
AcDbLine
 10
-15.000000000
 20
16.900000000
 30
0.000000000
 11
-15.000000000
 21
2.900000000
 31
0.000000000
  0
LINE
  5
A31
330
A02
100
AcDbEntity
  8
Sketch
100
AcDbLine
 10
-15.000000000
 20
2.900000000
 30
0.000000000
 11
-1.000000000
 21
2.900000000
 31
0.000000000
  0
LINE
  5
A32
330
A02
100
AcDbEntity
  8
Sketch
100
AcDbLine
 10
-1.000000000
 20
2.900000000
 30
0.000000000
 11
-1.000000000
 21
16.900000000
 31
0.000000000
  0
LINE
  5
A33
330
A02
100
AcDbEntity
  8
Sketch
100
AcDbLine
 10
-1.000000000
 20
16.900000000
 30
0.000000000
 11
-15.000000000
 21
16.900000000
 31
0.000000000
  0
LINE
  5
A34
330
A02
100
AcDbEntity
  8
Sketch
100
AcDbLine
 10
4.050000000
 20
12.900000000
 30
0.000000000
 11
4.050000000
 21
-1.100000000
 31
0.000000000
  0
LINE
  5
A35
330
A02
100
AcDbEntity
  8
Sketch
100
AcDbLine
 10
4.050000000
 20
-1.100000000
 30
0.000000000
 11
18.050000000
 21
-1.100000000
 31
0.000000000
  0
LINE
  5
A36
330
A02
100
AcDbEntity
  8
Sketch
100
AcDbLine
 10
18.050000000
 20
-1.100000000
 30
0.000000000
 11
18.050000000
 21
12.900000000
 31
0.000000000
  0
LINE
  5
A37
330
A02
100
AcDbEntity
  8
Sketch
100
AcDbLine
 10
18.050000000
 20
12.900000000
 30
0.000000000
 11
4.050000000
 21
12.900000000
 31
0.000000000
  0
LINE
  5
A38
330
A02
100
AcDbEntity
  8
Sketch
100
AcDbLine
 10
-55.530192068
 20
-21.567101400
 30
0.000000000
 11
-54.058732775
 21
-35.567101400
 31
0.000000000
  0
LINE
  5
A39
330
A02
100
AcDbEntity
  8
Sketch
100
AcDbLine
 10
-54.058732775
 20
-35.567101400
 30
0.000000000
 11
-40.058732775
 21
-34.095642107
 31
0.000000000
  0
LINE
  5
A3A
330
A02
100
AcDbEntity
  8
Sketch
100
AcDbLine
 10
-40.058732775
 20
-34.095642107
 30
0.000000000
 11
-41.530192068
 21
-20.095642107
 31
0.000000000
  0
LINE
  5
A3B
330
A02
100
AcDbEntity
  8
Sketch
100
AcDbLine
 10
-41.530192068
 20
-20.095642107
 30
0.000000000
 11
-55.530192068
 21
-21.567101400
 31
0.000000000
  0
LINE
  5
A3C
330
A02
100
AcDbEntity
  8
Sketch
100
AcDbLine
 10
-34.050000000
 20
-8.150000000
 30
0.000000000
 11
-34.050000000
 21
-22.150000000
 31
0.000000000
  0
LINE
  5
A3D
330
A02
100
AcDbEntity
  8
Sketch
100
AcDbLine
 10
-34.050000000
 20
-22.150000000
 30
0.000000000
 11
-20.050000000
 21
-22.150000000
 31
0.000000000
  0
LINE
  5
A3E
330
A02
100
AcDbEntity
  8
Sketch
100
AcDbLine
 10
-20.050000000
 20
-22.150000000
 30
0.000000000
 11
-20.050000000
 21
-8.150000000
 31
0.000000000
  0
LINE
  5
A3F
330
A02
100
AcDbEntity
  8
Sketch
100
AcDbLine
 10
-20.050000000
 20
-8.150000000
 30
0.000000000
 11
-34.050000000
 21
-8.150000000
 31
0.000000000
  0
LINE
  5
A40
330
A02
100
AcDbEntity
  8
Sketch
100
AcDbLine
 10
-15.000000000
 20
-2.150000000
 30
0.000000000
 11
-15.000000000
 21
-16.150000000
 31
0.000000000
  0
LINE
  5
A41
330
A02
100
AcDbEntity
  8
Sketch
100
AcDbLine
 10
-15.000000000
 20
-16.150000000
 30
0.000000000
 11
-1.000000000
 21
-16.150000000
 31
0.000000000
  0
LINE
  5
A42
330
A02
100
AcDbEntity
  8
Sketch
100
AcDbLine
 10
-1.000000000
 20
-16.150000000
 30
0.000000000
 11
-1.000000000
 21
-2.150000000
 31
0.000000000
  0
LINE
  5
A43
330
A02
100
AcDbEntity
  8
Sketch
100
AcDbLine
 10
-1.000000000
 20
-2.150000000
 30
0.000000000
 11
-15.000000000
 21
-2.150000000
 31
0.000000000
  0
LINE
  5
A44
330
A02
100
AcDbEntity
  8
Sketch
100
AcDbLine
 10
4.050000000
 20
-6.150000000
 30
0.000000000
 11
4.050000000
 21
-20.150000000
 31
0.000000000
  0
LINE
  5
A45
330
A02
100
AcDbEntity
  8
Sketch
100
AcDbLine
 10
4.050000000
 20
-20.150000000
 30
0.000000000
 11
18.050000000
 21
-20.150000000
 31
0.000000000
  0
LINE
  5
A46
330
A02
100
AcDbEntity
  8
Sketch
100
AcDbLine
 10
18.050000000
 20
-20.150000000
 30
0.000000000
 11
18.050000000
 21
-6.150000000
 31
0.000000000
  0
LINE
  5
A47
330
A02
100
AcDbEntity
  8
Sketch
100
AcDbLine
 10
18.050000000
 20
-6.150000000
 30
0.000000000
 11
4.050000000
 21
-6.150000000
 31
0.000000000
  0
LINE
  5
A48
330
A02
100
AcDbEntity
  8
Sketch
100
AcDbLine
 10
85.000000000
 20
61.000000000
 30
0.000000000
 11
-85.000000000
 21
61.000000000
 31
0.000000000
  0
LINE
  5
A49
330
A02
100
AcDbEntity
  8
Sketch
100
AcDbLine
 10
-85.000000000
 20
61.000000000
 30
0.000000000
 11
-85.000000000
 21
-61.000000000
 31
0.000000000
  0
LINE
  5
A4A
330
A02
100
AcDbEntity
  8
Sketch
100
AcDbLine
 10
-85.000000000
 20
-61.000000000
 30
0.000000000
 11
85.000000000
 21
-61.000000000
 31
0.000000000
  0
LINE
  5
A4B
330
A02
100
AcDbEntity
  8
Sketch
100
AcDbLine
 10
85.000000000
 20
-61.000000000
 30
0.000000000
 11
85.000000000
 21
61.000000000
 31
0.000000000
  0
LINE
  5
A4C
330
A02
100
AcDbEntity
  8
Sketch
100
AcDbLine
 10
23.100000000
 20
49.000000000
 30
0.000000000
 11
23.100000000
 21
35.000000000
 31
0.000000000
  0
LINE
  5
A4D
330
A02
100
AcDbEntity
  8
Sketch
100
AcDbLine
 10
23.100000000
 20
35.000000000
 30
0.000000000
 11
37.100000000
 21
35.000000000
 31
0.000000000
  0
LINE
  5
A4E
330
A02
100
AcDbEntity
  8
Sketch
100
AcDbLine
 10
37.100000000
 20
35.000000000
 30
0.000000000
 11
37.100000000
 21
49.000000000
 31
0.000000000
  0
LINE
  5
A4F
330
A02
100
AcDbEntity
  8
Sketch
100
AcDbLine
 10
37.100000000
 20
49.000000000
 30
0.000000000
 11
23.100000000
 21
49.000000000
 31
0.000000000
  0
LINE
  5
A50
330
A02
100
AcDbEntity
  8
Sketch
100
AcDbLine
 10
23.100000000
 20
15.950000000
 30
0.000000000
 11
37.100000000
 21
15.950000000
 31
0.000000000
  0
LINE
  5
A51
330
A02
100
AcDbEntity
  8
Sketch
100
AcDbLine
 10
37.100000000
 20
15.950000000
 30
0.000000000
 11
37.100000000
 21
29.950000000
 31
0.000000000
  0
LINE
  5
A52
330
A02
100
AcDbEntity
  8
Sketch
100
AcDbLine
 10
37.100000000
 20
29.950000000
 30
0.000000000
 11
23.100000000
 21
29.950000000
 31
0.000000000
  0
LINE
  5
A53
330
A02
100
AcDbEntity
  8
Sketch
100
AcDbLine
 10
23.100000000
 20
29.950000000
 30
0.000000000
 11
23.100000000
 21
15.950000000
 31
0.000000000
  0
LINE
  5
A54
330
A02
100
AcDbEntity
  8
Sketch
100
AcDbLine
 10
23.100000000
 20
-3.100000000
 30
0.000000000
 11
37.100000000
 21
-3.100000000
 31
0.000000000
  0
LINE
  5
A55
330
A02
100
AcDbEntity
  8
Sketch
100
AcDbLine
 10
37.100000000
 20
-3.100000000
 30
0.000000000
 11
37.100000000
 21
10.900000000
 31
0.000000000
  0
LINE
  5
A56
330
A02
100
AcDbEntity
  8
Sketch
100
AcDbLine
 10
37.100000000
 20
10.900000000
 30
0.000000000
 11
23.100000000
 21
10.900000000
 31
0.000000000
  0
LINE
  5
A57
330
A02
100
AcDbEntity
  8
Sketch
100
AcDbLine
 10
23.100000000
 20
10.900000000
 30
0.000000000
 11
23.100000000
 21
-3.100000000
 31
0.000000000
  0
LINE
  5
A58
330
A02
100
AcDbEntity
  8
Sketch
100
AcDbLine
 10
23.100000000
 20
-22.150000000
 30
0.000000000
 11
37.100000000
 21
-22.150000000
 31
0.000000000
  0
LINE
  5
A59
330
A02
100
AcDbEntity
  8
Sketch
100
AcDbLine
 10
37.100000000
 20
-22.150000000
 30
0.000000000
 11
37.100000000
 21
-8.150000000
 31
0.000000000
  0
LINE
  5
A5A
330
A02
100
AcDbEntity
  8
Sketch
100
AcDbLine
 10
37.100000000
 20
-8.150000000
 30
0.000000000
 11
23.100000000
 21
-8.150000000
 31
0.000000000
  0
LINE
  5
A5B
330
A02
100
AcDbEntity
  8
Sketch
100
AcDbLine
 10
23.100000000
 20
-8.150000000
 30
0.000000000
 11
23.100000000
 21
-22.150000000
 31
0.000000000
  0
LINE
  5
A5C
330
A02
100
AcDbEntity
  8
Sketch
100
AcDbLine
 10
-80.449480620
 20
33.278574010
 30
0.000000000
 11
-78.986082134
 21
19.355267475
 31
0.000000000
  0
LINE
  5
A5D
330
A02
100
AcDbEntity
  8
Sketch
100
AcDbLine
 10
-78.986082134
 20
19.355267475
 30
0.000000000
 11
-65.062775599
 21
20.818665961
 31
0.000000000
  0
LINE
  5
A5E
330
A02
100
AcDbEntity
  8
Sketch
100
AcDbLine
 10
-65.062775599
 20
20.818665961
 30
0.000000000
 11
-66.526174085
 21
34.741972496
 31
0.000000000
  0
LINE
  5
A5F
330
A02
100
AcDbEntity
  8
Sketch
100
AcDbLine
 10
-66.526174085
 20
34.741972496
 30
0.000000000
 11
-80.449480620
 21
33.278574010
 31
0.000000000
  0
LINE
  5
A60
330
A02
100
AcDbEntity
  8
Sketch
100
AcDbLine
 10
-76.994814909
 20
0.409625368
 30
0.000000000
 11
-63.071508374
 21
1.873023854
 31
0.000000000
  0
LINE
  5
A61
330
A02
100
AcDbEntity
  8
Sketch
100
AcDbLine
 10
-63.071508374
 20
1.873023854
 30
0.000000000
 11
-64.534906859
 21
15.796330389
 31
0.000000000
  0
LINE
  5
A62
330
A02
100
AcDbEntity
  8
Sketch
100
AcDbLine
 10
-64.534906859
 20
15.796330389
 30
0.000000000
 11
-78.458213394
 21
14.332931903
 31
0.000000000
  0
LINE
  5
A63
330
A02
100
AcDbEntity
  8
Sketch
100
AcDbLine
 10
-78.458213394
 20
14.332931903
 30
0.000000000
 11
-76.994814909
 21
0.409625368
 31
0.000000000
  0
LINE
  5
A64
330
A02
100
AcDbEntity
  8
Sketch
100
AcDbLine
 10
-75.003547683
 20
-18.536016739
 30
0.000000000
 11
-61.080241148
 21
-17.072618253
 31
0.000000000
  0
LINE
  5
A65
330
A02
100
AcDbEntity
  8
Sketch
100
AcDbLine
 10
-61.080241148
 20
-17.072618253
 30
0.000000000
 11
-62.543639634
 21
-3.149311718
 31
0.000000000
  0
LINE
  5
A66
330
A02
100
AcDbEntity
  8
Sketch
100
AcDbLine
 10
-62.543639634
 20
-3.149311718
 30
0.000000000
 11
-76.466946169
 21
-4.612710204
 31
0.000000000
  0
LINE
  5
A67
330
A02
100
AcDbEntity
  8
Sketch
100
AcDbLine
 10
-76.466946169
 20
-4.612710204
 30
0.000000000
 11
-75.003547683
 21
-18.536016739
 31
0.000000000
  0
LINE
  5
A68
330
A02
100
AcDbEntity
  8
Sketch
100
AcDbLine
 10
-73.012280458
 20
-37.481658845
 30
0.000000000
 11
-59.088973923
 21
-36.018260360
 31
0.000000000
  0
LINE
  5
A69
330
A02
100
AcDbEntity
  8
Sketch
100
AcDbLine
 10
-59.088973923
 20
-36.018260360
 30
0.000000000
 11
-60.552372409
 21
-22.094953825
 31
0.000000000
  0
LINE
  5
A6A
330
A02
100
AcDbEntity
  8
Sketch
100
AcDbLine
 10
-60.552372409
 20
-22.094953825
 30
0.000000000
 11
-74.475678944
 21
-23.558352310
 31
0.000000000
  0
LINE
  5
A6B
330
A02
100
AcDbEntity
  8
Sketch
100
AcDbLine
 10
-74.475678944
 20
-23.558352310
 30
0.000000000
 11
-73.012280458
 21
-37.481658845
 31
0.000000000
  0
LINE
  5
A6C
330
A02
100
AcDbEntity
  8
Sketch
100
AcDbLine
 10
15.559099480
 20
-28.179931366
 30
0.000000000
 11
1.974959312
 21
-31.566837904
 31
0.000000000
  0
LINE
  5
A6D
330
A02
100
AcDbEntity
  8
Sketch
100
AcDbLine
 10
1.974959312
 20
-31.566837904
 30
0.000000000
 11
5.361865850
 21
-45.150978072
 31
0.000000000
  0
LINE
  5
A6E
330
A02
100
AcDbEntity
  8
Sketch
100
AcDbLine
 10
5.361865850
 20
-45.150978072
 30
0.000000000
 11
18.946006018
 21
-41.764071534
 31
0.000000000
  0
LINE
  5
A6F
330
A02
100
AcDbEntity
  8
Sketch
100
AcDbLine
 10
18.946006018
 20
-41.764071534
 30
0.000000000
 11
15.559099480
 21
-28.179931366
 31
0.000000000
  0
LINE
  5
A70
330
A02
100
AcDbEntity
  8
Sketch
100
AcDbLine
 10
45.520900520
 20
-28.179931366
 30
0.000000000
 11
42.133993982
 21
-41.764071534
 31
0.000000000
  0
LINE
  5
A71
330
A02
100
AcDbEntity
  8
Sketch
100
AcDbLine
 10
42.133993982
 20
-41.764071534
 30
0.000000000
 11
55.718134150
 21
-45.150978072
 31
0.000000000
  0
LINE
  5
A72
330
A02
100
AcDbEntity
  8
Sketch
100
AcDbLine
 10
55.718134150
 20
-45.150978072
 30
0.000000000
 11
59.105040688
 21
-31.566837904
 31
0.000000000
  0
LINE
  5
A73
330
A02
100
AcDbEntity
  8
Sketch
100
AcDbLine
 10
59.105040688
 20
-31.566837904
 30
0.000000000
 11
45.520900520
 21
-28.179931366
 31
0.000000000
  0
LINE
  5
A74
330
A02
100
AcDbEntity
  8
Sketch
100
AcDbLine
 10
66.611807501
 20
-34.448415703
 30
0.000000000
 11
60.039205622
 21
-46.809682003
 31
0.000000000
  0
LINE
  5
A75
330
A02
100
AcDbEntity
  8
Sketch
100
AcDbLine
 10
60.039205622
 20
-46.809682003
 30
0.000000000
 11
72.400471922
 21
-53.382283882
 31
0.000000000
  0
LINE
  5
A76
330
A02
100
AcDbEntity
  8
Sketch
100
AcDbLine
 10
72.400471922
 20
-53.382283882
 30
0.000000000
 11
78.973073801
 21
-41.021017582
 31
0.000000000
  0
LINE
  5
A77
330
A02
100
AcDbEntity
  8
Sketch
100
AcDbLine
 10
78.973073801
 20
-41.021017582
 30
0.000000000
 11
66.611807501
 21
-34.448415703
 31
0.000000000
  0
LINE
  5
A78
330
A02
100
AcDbEntity
  8
Sketch
100
AcDbLine
 10
23.540000000
 20
-27.200000000
 30
0.000000000
 11
23.540000000
 21
-41.200000000
 31
0.000000000
  0
LINE
  5
A79
330
A02
100
AcDbEntity
  8
Sketch
100
AcDbLine
 10
23.540000000
 20
-41.200000000
 30
0.000000000
 11
37.540000000
 21
-41.200000000
 31
0.000000000
  0
LINE
  5
A7A
330
A02
100
AcDbEntity
  8
Sketch
100
AcDbLine
 10
37.540000000
 20
-41.200000000
 30
0.000000000
 11
37.540000000
 21
-27.200000000
 31
0.000000000
  0
LINE
  5
A7B
330
A02
100
AcDbEntity
  8
Sketch
100
AcDbLine
 10
37.540000000
 20
-27.200000000
 30
0.000000000
 11
23.540000000
 21
-27.200000000
 31
0.000000000
  0
ENDSEC
  0
SECTION
  2
OBJECTS
  0
DICTIONARY
  5
F000
330
0
100
AcDbDictionary
  3
ACAD_GROUP
350
F001
  0
DICTIONARY
  5
F001
330
F000
100
AcDbDictionary
  0
ENDSEC
  0
EOF